<?xml version="1.0"?>
<svg xmlns="http://www.w3.org/2000/svg" xmlns:xlink="http://www.w3.org/1999/xlink" xmlns:svgjs="http://svgjs.com/svgjs" version="1.1" width="512" height="512" x="0" y="0" viewBox="0 0 512.002 512.002" style="enable-background:new 0 0 512 512" xml:space="preserve"><g><g xmlns="http://www.w3.org/2000/svg"><g><path d="m510.543 351.081c-4.466-14.047-20.038-26.467-43.662-20.539-.057.015-.113.029-.169.044l-98.738 26.616c-3.561-15.509-18.438-26.151-34.6-24.145-5.709.709-25.024 3.454-45.475 6.36-19.482 2.769-39.628 5.631-45.166 6.319-12.204 1.517-28.446.232-45.642-1.126-6.073-.479-12.352-.976-18.778-1.381-5.505-.344-10.262 3.839-10.609 9.351-.348 5.512 3.839 10.262 9.351 10.61 6.268.395 12.467.885 18.461 1.358 18.236 1.441 35.463 2.801 49.682 1.036 5.712-.709 25.046-3.457 45.515-6.365 19.465-2.766 39.592-5.626 45.126-6.313 6.29-.785 12.062 3.668 12.845 9.924.248 1.979.906 7.234-12.924 13.574-28.443 13.041-58.754 24.202-83.161 30.623-5.341 1.405-8.532 6.874-7.127 12.215s6.875 8.533 12.215 7.127c25.471-6.7 56.966-18.285 86.409-31.784 10.232-4.691 16.472-10.156 20.114-15.654l107.615-29.009c11.859-2.95 17.933 1.79 19.657 7.218 1.663 5.23-.424 11.965-8.827 15.241-8.379 3.156-28.432 11.879-53.804 22.917-33.631 14.631-75.486 32.839-108.867 46.224-41.069 16.468-52.758 18.683-96.196 18.198l-68.459-.758c-3.772-.056-7.274 2.06-9.005 5.429l-9.396 18.285c-.324.632-.581 1.296-.765 1.982-1.388 5.18-3.136 7.345-10.369 7.345h-100.639c-1.094 0-2.271-.677-3.229-1.856-.817-1.006-2.612-3.846-1.641-8.481 12.043-57.486 35.775-93.097 72.553-108.87 5.076-2.177 7.426-8.056 5.249-13.132-2.176-5.076-8.056-7.427-13.132-5.249-43.21 18.531-70.768 58.813-84.246 123.15-1.924 9.187.15 18.368 5.692 25.191 4.773 5.876 11.609 9.247 18.753 9.247h100.639c15.139 0 25.273-7.279 29.377-21.071l6.116-11.902 62.279.69c45.938.505 60.493-2.244 103.861-19.633 33.649-13.493 75.652-31.766 109.402-46.448 24.172-10.515 45.048-19.597 52.919-22.556.031-.012.063-.024.095-.036 19.525-7.569 25.193-25.835 20.701-39.966z" fill="#ff324d" data-original="#000000" style=""/><path d="m132.681 343.197c-5.523 0-9.996 4.477-9.996 10s4.48 10 10.003 10 10-4.477 10-10-4.477-10-10-10z" fill="#ff324d" data-original="#000000" style=""/><path d="m256.009 320c5.523 0 10-4.477 10-10v-40c0-5.523-4.478-10-10-10-55.14 0-100-44.86-100-100s44.86-100 100-100c51.764 0 94.469 39.539 99.504 90h-12.795c-3.721 0-7.134 2.066-8.859 5.362-1.726 3.296-1.479 7.278.642 10.336l43.291 62.438c1.868 2.695 4.938 4.302 8.218 4.302s6.35-1.607 8.218-4.302l43.29-62.438c2.12-3.058 2.367-7.04.642-10.336-1.726-3.296-5.139-5.362-8.859-5.362h-13.6c-5.184-83.582-74.828-150-159.692-150-88.224 0-160 71.776-160 160s71.776 160 160 160zm0-300c77.196 0 140 62.804 140 140 0 5.523 4.478 10 10 10h4.188l-24.188 34.887-24.188-34.887h4.188c2.652 0 5.196-1.054 7.071-2.929s2.929-4.419 2.929-7.071c-.001-66.168-53.833-120-120-120-66.168 0-120 53.832-120 120 0 62.8 48.494 114.488 110 119.587v20.059c-72.544-5.147-130-65.814-130-139.646 0-77.196 62.804-140 140-140z" fill="#ff324d" data-original="#000000" style=""/><path d="m263.166 134.157c3.904 3.904 10.237 3.905 14.142-.001 3.905-3.905 3.905-10.237-.001-14.142-3.259-3.258-7.159-5.495-11.297-6.711v-3.303c0-5.523-4.478-10-10-10-5.523 0-10 4.477-10 10v5.282c-2.309 1.216-4.476 2.793-6.416 4.732-10.397 10.397-10.397 27.315 0 37.713l18.688 18.688c2.6 2.599 2.6 6.829 0 9.428-1.259 1.259-2.933 1.952-4.713 1.952s-3.456-.693-4.715-1.953c-3.905-3.905-10.237-3.905-14.142 0s-3.905 10.237 0 14.142c3.201 3.2 7.073 5.483 11.297 6.725v3.291c0 5.523 4.477 10 10 10 5.522 0 10-4.477 10-10v-5.273c2.334-1.234 4.496-2.823 6.415-4.742 10.397-10.397 10.397-27.315 0-37.713l-18.688-18.688c-1.259-1.259-1.953-2.933-1.953-4.714s.693-3.455 1.953-4.714c2.6-2.6 6.83-2.598 9.43.001z" fill="#ff324d" data-original="#000000" style=""/></g></g></g></svg>
